<svg xmlns="http://www.w3.org/2000/svg" width="200" zoomAndPan="magnify" viewBox="0 0 150 30.000001" height="40"
     preserveAspectRatio="xMidYMid meet" version="1.0"><defs><g/><clipPath id="7db0db982f"><path d="M 2.417969 0.824219 L 24 0.824219 L 24 28.40625 L 2.417969 28.40625 Z M 2.417969 0.824219 " clip-rule="nonzero"/></clipPath><clipPath id="27b195ec7d"><path d="M 21.554688 9.886719 C 23.050781 11.054688 23.804688 12.835938 23.734375 14.613281 C 23.804688 16.394531 23.050781 18.175781 21.554688 19.34375 L 11.421875 27.230469 C 8.972656 29.136719 5.460938 28.671875 3.578125 26.1875 C 1.695312 23.707031 2.15625 20.148438 4.605469 18.242188 L 9.261719 14.613281 L 4.605469 10.988281 C 2.15625 9.082031 1.695312 5.523438 3.578125 3.039062 C 5.460938 0.558594 8.972656 0.09375 11.421875 2 Z M 7.710938 6.28125 C 7.332031 6.78125 7.425781 7.496094 7.917969 7.878906 L 16.570312 14.613281 L 7.917969 21.351562 C 7.425781 21.734375 7.332031 22.449219 7.710938 22.949219 C 8.089844 23.449219 8.792969 23.542969 9.285156 23.15625 L 18.976562 15.613281 C 19.050781 15.554688 19.117188 15.488281 19.175781 15.417969 C 19.214844 15.378906 19.25 15.335938 19.285156 15.292969 C 19.664062 14.792969 19.570312 14.078125 19.078125 13.695312 L 9.285156 6.070312 C 8.792969 5.6875 8.089844 5.78125 7.710938 6.28125 Z M 7.710938 6.28125 " clip-rule="evenodd"/></clipPath><linearGradient x1="33.425627" gradientTransform="matrix(0.680444, 0, 0, 0.689445, 2.419352, 0.825852)" y1="36.933504" x2="-6.943663" gradientUnits="userSpaceOnUse" y2="10.671588" id="3bc90bb1ea"><stop stop-opacity="1" stop-color="rgb(50.588989%, 25.489807%, 97.24884%)" offset="0"/><stop stop-opacity="1" stop-color="rgb(50.588989%, 25.489807%, 97.24884%)" offset="0.125"/><stop stop-opacity="1" stop-color="rgb(50.588989%, 25.489807%, 97.24884%)" offset="0.140625"/><stop stop-opacity="1" stop-color="rgb(50.738525%, 25.613403%, 97.116089%)" offset="0.148438"/><stop stop-opacity="1" stop-color="rgb(51.139832%, 25.946045%, 96.760559%)" offset="0.152344"/><stop stop-opacity="1" stop-color="rgb(51.390076%, 26.153564%, 96.537781%)" offset="0.15625"/><stop stop-opacity="1" stop-color="rgb(51.64032%, 26.361084%, 96.315002%)" offset="0.160156"/><stop stop-opacity="1" stop-color="rgb(51.890564%, 26.568604%, 96.092224%)" offset="0.164062"/><stop stop-opacity="1" stop-color="rgb(52.140808%, 26.776123%, 95.869446%)" offset="0.167969"/><stop stop-opacity="1" stop-color="rgb(52.392578%, 26.983643%, 95.646667%)" offset="0.171875"/><stop stop-opacity="1" stop-color="rgb(52.642822%, 27.191162%, 95.423889%)" offset="0.175781"/><stop stop-opacity="1" stop-color="rgb(52.893066%, 27.400208%, 95.201111%)" offset="0.179688"/><stop stop-opacity="1" stop-color="rgb(53.143311%, 27.607727%, 94.978333%)" offset="0.183594"/><stop stop-opacity="1" stop-color="rgb(53.393555%, 27.815247%, 94.755554%)" offset="0.1875"/><stop stop-opacity="1" stop-color="rgb(53.643799%, 28.022766%, 94.532776%)" offset="0.191406"/><stop stop-opacity="1" stop-color="rgb(53.895569%, 28.230286%, 94.309998%)" offset="0.195312"/><stop stop-opacity="1" stop-color="rgb(54.145813%, 28.437805%, 94.087219%)" offset="0.199219"/><stop stop-opacity="1" stop-color="rgb(54.396057%, 28.645325%, 93.865967%)" offset="0.203125"/><stop stop-opacity="1" stop-color="rgb(54.646301%, 28.852844%, 93.643188%)" offset="0.207031"/><stop stop-opacity="1" stop-color="rgb(54.898071%, 29.06189%, 93.42041%)" offset="0.210937"/><stop stop-opacity="1" stop-color="rgb(55.148315%, 29.269409%, 93.197632%)" offset="0.214844"/><stop stop-opacity="1" stop-color="rgb(55.39856%, 29.476929%, 92.974854%)" offset="0.21875"/><stop stop-opacity="1" stop-color="rgb(55.648804%, 29.684448%, 92.752075%)" offset="0.222656"/><stop stop-opacity="1" stop-color="rgb(55.899048%, 29.891968%, 92.529297%)" offset="0.226562"/><stop stop-opacity="1" stop-color="rgb(56.149292%, 30.099487%, 92.306519%)" offset="0.230469"/><stop stop-opacity="1" stop-color="rgb(56.401062%, 30.307007%, 92.08374%)" offset="0.234375"/><stop stop-opacity="1" stop-color="rgb(56.651306%, 30.514526%, 91.860962%)" offset="0.238281"/><stop stop-opacity="1" stop-color="rgb(56.90155%, 30.723572%, 91.638184%)" offset="0.242187"/><stop stop-opacity="1" stop-color="rgb(57.151794%, 30.931091%, 91.415405%)" offset="0.246094"/><stop stop-opacity="1" stop-color="rgb(57.402039%, 31.138611%, 91.192627%)" offset="0.25"/><stop stop-opacity="1" stop-color="rgb(57.652283%, 31.34613%, 90.969849%)" offset="0.253906"/><stop stop-opacity="1" stop-color="rgb(57.904053%, 31.55365%, 90.74707%)" offset="0.257812"/><stop stop-opacity="1" stop-color="rgb(58.154297%, 31.761169%, 90.524292%)" offset="0.261719"/><stop stop-opacity="1" stop-color="rgb(58.404541%, 31.968689%, 90.30304%)" offset="0.265625"/><stop stop-opacity="1" stop-color="rgb(58.654785%, 32.176208%, 90.080261%)" offset="0.269531"/><stop stop-opacity="1" stop-color="rgb(58.906555%, 32.385254%, 89.857483%)" offset="0.273438"/><stop stop-opacity="1" stop-color="rgb(59.156799%, 32.592773%, 89.634705%)" offset="0.277344"/><stop stop-opacity="1" stop-color="rgb(59.407043%, 32.800293%, 89.411926%)" offset="0.28125"/><stop stop-opacity="1" stop-color="rgb(59.657288%, 33.007812%, 89.189148%)" offset="0.285156"/><stop stop-opacity="1" stop-color="rgb(59.907532%, 33.215332%, 88.96637%)" offset="0.289062"/><stop stop-opacity="1" stop-color="rgb(60.157776%, 33.422852%, 88.743591%)" offset="0.292969"/><stop stop-opacity="1" stop-color="rgb(60.409546%, 33.630371%, 88.520813%)" offset="0.296875"/><stop stop-opacity="1" stop-color="rgb(60.65979%, 33.837891%, 88.298035%)" offset="0.300781"/><stop stop-opacity="1" stop-color="rgb(60.910034%, 34.046936%, 88.075256%)" offset="0.304688"/><stop stop-opacity="1" stop-color="rgb(61.160278%, 34.254456%, 87.852478%)" offset="0.308594"/><stop stop-opacity="1" stop-color="rgb(61.410522%, 34.461975%, 87.6297%)" offset="0.3125"/><stop stop-opacity="1" stop-color="rgb(61.660767%, 34.669495%, 87.406921%)" offset="0.316406"/><stop stop-opacity="1" stop-color="rgb(61.912537%, 34.877014%, 87.185669%)" offset="0.320312"/><stop stop-opacity="1" stop-color="rgb(62.162781%, 35.084534%, 86.962891%)" offset="0.324219"/><stop stop-opacity="1" stop-color="rgb(62.413025%, 35.292053%, 86.740112%)" offset="0.328125"/><stop stop-opacity="1" stop-color="rgb(62.663269%, 35.499573%, 86.517334%)" offset="0.332031"/><stop stop-opacity="1" stop-color="rgb(62.913513%, 35.708618%, 86.294556%)" offset="0.335937"/><stop stop-opacity="1" stop-color="rgb(63.163757%, 35.916138%, 86.071777%)" offset="0.339844"/><stop stop-opacity="1" stop-color="rgb(63.415527%, 36.123657%, 85.848999%)" offset="0.34375"/><stop stop-opacity="1" stop-color="rgb(63.665771%, 36.331177%, 85.626221%)" offset="0.347656"/><stop stop-opacity="1" stop-color="rgb(63.916016%, 36.538696%, 85.403442%)" offset="0.351562"/><stop stop-opacity="1" stop-color="rgb(64.16626%, 36.746216%, 85.180664%)" offset="0.355469"/><stop stop-opacity="1" stop-color="rgb(64.41803%, 36.953735%, 84.957886%)" offset="0.359375"/><stop stop-opacity="1" stop-color="rgb(64.668274%, 37.161255%, 84.735107%)" offset="0.363281"/><stop stop-opacity="1" stop-color="rgb(64.918518%, 37.3703%, 84.512329%)" offset="0.367187"/><stop stop-opacity="1" stop-color="rgb(65.168762%, 37.57782%, 84.289551%)" offset="0.371094"/><stop stop-opacity="1" stop-color="rgb(65.419006%, 37.785339%, 84.066772%)" offset="0.375"/><stop stop-opacity="1" stop-color="rgb(65.66925%, 37.992859%, 83.843994%)" offset="0.378906"/><stop stop-opacity="1" stop-color="rgb(65.921021%, 38.200378%, 83.622742%)" offset="0.382812"/><stop stop-opacity="1" stop-color="rgb(66.171265%, 38.407898%, 83.399963%)" offset="0.386719"/><stop stop-opacity="1" stop-color="rgb(66.421509%, 38.615417%, 83.177185%)" offset="0.390625"/><stop stop-opacity="1" stop-color="rgb(66.671753%, 38.822937%, 82.954407%)" offset="0.394531"/><stop stop-opacity="1" stop-color="rgb(66.921997%, 39.031982%, 82.731628%)" offset="0.398438"/><stop stop-opacity="1" stop-color="rgb(67.172241%, 39.239502%, 82.50885%)" offset="0.402344"/><stop stop-opacity="1" stop-color="rgb(67.424011%, 39.447021%, 82.286072%)" offset="0.40625"/><stop stop-opacity="1" stop-color="rgb(67.674255%, 39.654541%, 82.063293%)" offset="0.410156"/><stop stop-opacity="1" stop-color="rgb(67.9245%, 39.862061%, 81.840515%)" offset="0.414062"/><stop stop-opacity="1" stop-color="rgb(68.174744%, 40.06958%, 81.617737%)" offset="0.417969"/><stop stop-opacity="1" stop-color="rgb(68.426514%, 40.278625%, 81.394958%)" offset="0.421875"/><stop stop-opacity="1" stop-color="rgb(68.676758%, 40.486145%, 81.17218%)" offset="0.425781"/><stop stop-opacity="1" stop-color="rgb(68.927002%, 40.693665%, 80.949402%)" offset="0.429688"/><stop stop-opacity="1" stop-color="rgb(69.177246%, 40.901184%, 80.726624%)" offset="0.433594"/><stop stop-opacity="1" stop-color="rgb(69.42749%, 41.108704%, 80.505371%)" offset="0.4375"/><stop stop-opacity="1" stop-color="rgb(69.677734%, 41.316223%, 80.282593%)" offset="0.441406"/><stop stop-opacity="1" stop-color="rgb(69.929504%, 41.523743%, 80.059814%)" offset="0.445312"/><stop stop-opacity="1" stop-color="rgb(70.179749%, 41.731262%, 79.837036%)" offset="0.449219"/><stop stop-opacity="1" stop-color="rgb(70.429993%, 41.940308%, 79.614258%)" offset="0.453125"/><stop stop-opacity="1" stop-color="rgb(70.680237%, 42.147827%, 79.391479%)" offset="0.457031"/><stop stop-opacity="1" stop-color="rgb(70.930481%, 42.355347%, 79.168701%)" offset="0.460937"/><stop stop-opacity="1" stop-color="rgb(71.180725%, 42.562866%, 78.945923%)" offset="0.464844"/><stop stop-opacity="1" stop-color="rgb(71.432495%, 42.770386%, 78.723145%)" offset="0.46875"/><stop stop-opacity="1" stop-color="rgb(71.682739%, 42.977905%, 78.500366%)" offset="0.472656"/><stop stop-opacity="1" stop-color="rgb(71.932983%, 43.185425%, 78.277588%)" offset="0.476562"/><stop stop-opacity="1" stop-color="rgb(72.183228%, 43.392944%, 78.05481%)" offset="0.480469"/><stop stop-opacity="1" stop-color="rgb(72.433472%, 43.60199%, 77.832031%)" offset="0.484375"/><stop stop-opacity="1" stop-color="rgb(72.683716%, 43.809509%, 77.609253%)" offset="0.488281"/><stop stop-opacity="1" stop-color="rgb(72.935486%, 44.017029%, 77.386475%)" offset="0.492187"/><stop stop-opacity="1" stop-color="rgb(73.18573%, 44.224548%, 77.163696%)" offset="0.496094"/><stop stop-opacity="1" stop-color="rgb(73.435974%, 44.432068%, 76.942444%)" offset="0.5"/><stop stop-opacity="1" stop-color="rgb(73.686218%, 44.639587%, 76.719666%)" offset="0.503906"/><stop stop-opacity="1" stop-color="rgb(73.937988%, 44.847107%, 76.496887%)" offset="0.507812"/><stop stop-opacity="1" stop-color="rgb(74.188232%, 45.054626%, 76.274109%)" offset="0.511719"/><stop stop-opacity="1" stop-color="rgb(74.438477%, 45.263672%, 76.051331%)" offset="0.515625"/><stop stop-opacity="1" stop-color="rgb(74.688721%, 45.471191%, 75.828552%)" offset="0.519531"/><stop stop-opacity="1" stop-color="rgb(74.938965%, 45.678711%, 75.605774%)" offset="0.523438"/><stop stop-opacity="1" stop-color="rgb(75.189209%, 45.88623%, 75.382996%)" offset="0.527344"/><stop stop-opacity="1" stop-color="rgb(75.440979%, 46.09375%, 75.160217%)" offset="0.53125"/><stop stop-opacity="1" stop-color="rgb(75.691223%, 46.30127%, 74.937439%)" offset="0.535156"/><stop stop-opacity="1" stop-color="rgb(75.941467%, 46.508789%, 74.714661%)" offset="0.539062"/><stop stop-opacity="1" stop-color="rgb(76.191711%, 46.716309%, 74.491882%)" offset="0.542969"/><stop stop-opacity="1" stop-color="rgb(76.441956%, 46.925354%, 74.269104%)" offset="0.546875"/><stop stop-opacity="1" stop-color="rgb(76.6922%, 47.132874%, 74.046326%)" offset="0.550781"/><stop stop-opacity="1" stop-color="rgb(76.94397%, 47.340393%, 73.825073%)" offset="0.554688"/><stop stop-opacity="1" stop-color="rgb(77.194214%, 47.547913%, 73.602295%)" offset="0.558594"/><stop stop-opacity="1" stop-color="rgb(77.444458%, 47.755432%, 73.379517%)" offset="0.5625"/><stop stop-opacity="1" stop-color="rgb(77.694702%, 47.962952%, 73.156738%)" offset="0.566406"/><stop stop-opacity="1" stop-color="rgb(77.946472%, 48.170471%, 72.93396%)" offset="0.570312"/><stop stop-opacity="1" stop-color="rgb(78.196716%, 48.377991%, 72.711182%)" offset="0.574219"/><stop stop-opacity="1" stop-color="rgb(78.44696%, 48.587036%, 72.488403%)" offset="0.578125"/><stop stop-opacity="1" stop-color="rgb(78.697205%, 48.794556%, 72.265625%)" offset="0.582031"/><stop stop-opacity="1" stop-color="rgb(78.947449%, 49.002075%, 72.042847%)" offset="0.585938"/><stop stop-opacity="1" stop-color="rgb(79.197693%, 49.209595%, 71.820068%)" offset="0.589844"/><stop stop-opacity="1" stop-color="rgb(79.449463%, 49.417114%, 71.59729%)" offset="0.59375"/><stop stop-opacity="1" stop-color="rgb(79.699707%, 49.624634%, 71.374512%)" offset="0.597656"/><stop stop-opacity="1" stop-color="rgb(79.949951%, 49.832153%, 71.151733%)" offset="0.601562"/><stop stop-opacity="1" stop-color="rgb(80.200195%, 50.039673%, 70.928955%)" offset="0.605469"/><stop stop-opacity="1" stop-color="rgb(80.450439%, 50.248718%, 70.706177%)" offset="0.609375"/><stop stop-opacity="1" stop-color="rgb(80.700684%, 50.456238%, 70.483398%)" offset="0.613281"/><stop stop-opacity="1" stop-color="rgb(80.952454%, 50.663757%, 70.262146%)" offset="0.617188"/><stop stop-opacity="1" stop-color="rgb(81.202698%, 50.871277%, 70.039368%)" offset="0.621094"/><stop stop-opacity="1" stop-color="rgb(81.452942%, 51.078796%, 69.816589%)" offset="0.625"/><stop stop-opacity="1" stop-color="rgb(81.703186%, 51.286316%, 69.593811%)" offset="0.628906"/><stop stop-opacity="1" stop-color="rgb(81.954956%, 51.493835%, 69.371033%)" offset="0.632812"/><stop stop-opacity="1" stop-color="rgb(82.2052%, 51.701355%, 69.148254%)" offset="0.636719"/><stop stop-opacity="1" stop-color="rgb(82.455444%, 51.9104%, 68.925476%)" offset="0.640625"/><stop stop-opacity="1" stop-color="rgb(82.705688%, 52.11792%, 68.702698%)" offset="0.644531"/><stop stop-opacity="1" stop-color="rgb(82.955933%, 52.325439%, 68.479919%)" offset="0.648438"/><stop stop-opacity="1" stop-color="rgb(83.206177%, 52.532959%, 68.257141%)" offset="0.652344"/><stop stop-opacity="1" stop-color="rgb(83.457947%, 52.740479%, 68.034363%)" offset="0.65625"/><stop stop-opacity="1" stop-color="rgb(83.708191%, 52.947998%, 67.811584%)" offset="0.660156"/><stop stop-opacity="1" stop-color="rgb(83.958435%, 53.155518%, 67.588806%)" offset="0.664062"/><stop stop-opacity="1" stop-color="rgb(84.208679%, 53.363037%, 67.366028%)" offset="0.667969"/><stop stop-opacity="1" stop-color="rgb(84.458923%, 53.572083%, 67.14325%)" offset="0.671875"/><stop stop-opacity="1" stop-color="rgb(84.709167%, 53.779602%, 66.920471%)" offset="0.675781"/><stop stop-opacity="1" stop-color="rgb(84.960938%, 53.987122%, 66.699219%)" offset="0.679688"/><stop stop-opacity="1" stop-color="rgb(85.211182%, 54.194641%, 66.47644%)" offset="0.683594"/><stop stop-opacity="1" stop-color="rgb(85.461426%, 54.402161%, 66.253662%)" offset="0.6875"/><stop stop-opacity="1" stop-color="rgb(85.71167%, 54.60968%, 66.030884%)" offset="0.691406"/><stop stop-opacity="1" stop-color="rgb(85.961914%, 54.818726%, 65.808105%)" offset="0.695312"/><stop stop-opacity="1" stop-color="rgb(86.212158%, 55.026245%, 65.585327%)" offset="0.699219"/><stop stop-opacity="1" stop-color="rgb(86.463928%, 55.233765%, 65.362549%)" offset="0.703125"/><stop stop-opacity="1" stop-color="rgb(86.714172%, 55.441284%, 65.139771%)" offset="0.707031"/><stop stop-opacity="1" stop-color="rgb(86.964417%, 55.648804%, 64.916992%)" offset="0.710938"/><stop stop-opacity="1" stop-color="rgb(87.214661%, 55.856323%, 64.694214%)" offset="0.714844"/><stop stop-opacity="1" stop-color="rgb(87.466431%, 56.063843%, 64.471436%)" offset="0.71875"/><stop stop-opacity="1" stop-color="rgb(87.716675%, 56.271362%, 64.248657%)" offset="0.722656"/><stop stop-opacity="1" stop-color="rgb(87.966919%, 56.480408%, 64.025879%)" offset="0.726562"/><stop stop-opacity="1" stop-color="rgb(88.217163%, 56.687927%, 63.803101%)" offset="0.730469"/><stop stop-opacity="1" stop-color="rgb(88.467407%, 56.895447%, 63.581848%)" offset="0.734375"/><stop stop-opacity="1" stop-color="rgb(88.717651%, 57.102966%, 63.35907%)" offset="0.738281"/><stop stop-opacity="1" stop-color="rgb(88.969421%, 57.310486%, 63.136292%)" offset="0.742188"/><stop stop-opacity="1" stop-color="rgb(89.219666%, 57.518005%, 62.913513%)" offset="0.746094"/><stop stop-opacity="1" stop-color="rgb(89.46991%, 57.725525%, 62.690735%)" offset="0.75"/><stop stop-opacity="1" stop-color="rgb(89.720154%, 57.933044%, 62.467957%)" offset="0.753906"/><stop stop-opacity="1" stop-color="rgb(89.970398%, 58.14209%, 62.245178%)" offset="0.757812"/><stop stop-opacity="1" stop-color="rgb(90.220642%, 58.349609%, 62.0224%)" offset="0.761719"/><stop stop-opacity="1" stop-color="rgb(90.472412%, 58.557129%, 61.799622%)" offset="0.765625"/><stop stop-opacity="1" stop-color="rgb(90.722656%, 58.764648%, 61.576843%)" offset="0.769531"/><stop stop-opacity="1" stop-color="rgb(90.9729%, 58.972168%, 61.354065%)" offset="0.773438"/><stop stop-opacity="1" stop-color="rgb(91.223145%, 59.179688%, 61.131287%)" offset="0.777344"/><stop stop-opacity="1" stop-color="rgb(91.474915%, 59.387207%, 60.908508%)" offset="0.78125"/><stop stop-opacity="1" stop-color="rgb(91.725159%, 59.594727%, 60.68573%)" offset="0.785156"/><stop stop-opacity="1" stop-color="rgb(91.975403%, 59.803772%, 60.462952%)" offset="0.789062"/><stop stop-opacity="1" stop-color="rgb(92.225647%, 60.011292%, 60.240173%)" offset="0.792969"/><stop stop-opacity="1" stop-color="rgb(92.475891%, 60.218811%, 60.018921%)" offset="0.796875"/><stop stop-opacity="1" stop-color="rgb(92.726135%, 60.426331%, 59.796143%)" offset="0.800781"/><stop stop-opacity="1" stop-color="rgb(92.977905%, 60.63385%, 59.573364%)" offset="0.804688"/><stop stop-opacity="1" stop-color="rgb(93.228149%, 60.84137%, 59.350586%)" offset="0.808594"/><stop stop-opacity="1" stop-color="rgb(93.478394%, 61.048889%, 59.127808%)" offset="0.8125"/><stop stop-opacity="1" stop-color="rgb(93.728638%, 61.256409%, 58.905029%)" offset="0.816406"/><stop stop-opacity="1" stop-color="rgb(93.978882%, 61.465454%, 58.682251%)" offset="0.820312"/><stop stop-opacity="1" stop-color="rgb(94.229126%, 61.672974%, 58.459473%)" offset="0.824219"/><stop stop-opacity="1" stop-color="rgb(94.480896%, 61.880493%, 58.236694%)" offset="0.828125"/><stop stop-opacity="1" stop-color="rgb(94.73114%, 62.088013%, 58.013916%)" offset="0.832031"/><stop stop-opacity="1" stop-color="rgb(94.981384%, 62.295532%, 57.791138%)" offset="0.835938"/><stop stop-opacity="1" stop-color="rgb(95.231628%, 62.503052%, 57.568359%)" offset="0.839844"/><stop stop-opacity="1" stop-color="rgb(95.481873%, 62.710571%, 57.345581%)" offset="0.84375"/><stop stop-opacity="1" stop-color="rgb(95.732117%, 62.918091%, 57.122803%)" offset="0.847656"/><stop stop-opacity="1" stop-color="rgb(95.983887%, 63.127136%, 56.90155%)" offset="0.851562"/><stop stop-opacity="1" stop-color="rgb(96.226501%, 63.328552%, 56.684875%)" offset="0.855469"/><stop stop-opacity="1" stop-color="rgb(96.469116%, 63.529968%, 56.469727%)" offset="0.859375"/><stop stop-opacity="1" stop-color="rgb(96.469116%, 63.529968%, 56.469727%)" offset="0.875"/><stop stop-opacity="1" stop-color="rgb(96.469116%, 63.529968%, 56.469727%)" offset="1"/></linearGradient><clipPath id="b27e1a3f3b"><path d="M 129 4 L 147.578125 4 L 147.578125 25 L 129 25 Z M 129 4 " clip-rule="nonzero"/></clipPath></defs><g clip-path="url(#7db0db982f)"><g clip-path="url(#27b195ec7d)"><path fill="url(#3bc90bb1ea)" d="M 2.417969 0.824219 L 2.417969 28.40625 L 23.804688 28.40625 L 23.804688 0.824219 Z M 2.417969 0.824219 " fill-rule="nonzero"/></g></g><g fill="#ffffff" fill-opacity="1"><g transform="translate(30.560894, 24.314518)"><g><path d="M 8.953125 0.234375 C 7.421875 0.234375 5.945312 0 4.53125 -0.46875 C 3.113281 -0.945312 2 -1.5625 1.1875 -2.3125 L 2.265625 -4.578125 C 3.035156 -3.878906 4.019531 -3.3125 5.21875 -2.875 C 6.425781 -2.445312 7.671875 -2.234375 8.953125 -2.234375 C 10.628906 -2.234375 11.878906 -2.515625 12.703125 -3.078125 C 13.535156 -3.648438 13.953125 -4.410156 13.953125 -5.359375 C 13.953125 -6.054688 13.722656 -6.617188 13.265625 -7.046875 C 12.816406 -7.484375 12.257812 -7.816406 11.59375 -8.046875 C 10.925781 -8.273438 9.984375 -8.535156 8.765625 -8.828125 C 7.242188 -9.191406 6.015625 -9.554688 5.078125 -9.921875 C 4.140625 -10.296875 3.335938 -10.863281 2.671875 -11.625 C 2.003906 -12.382812 1.671875 -13.410156 1.671875 -14.703125 C 1.671875 -15.785156 1.957031 -16.757812 2.53125 -17.625 C 3.101562 -18.5 3.96875 -19.195312 5.125 -19.71875 C 6.28125 -20.238281 7.71875 -20.5 9.4375 -20.5 C 10.632812 -20.5 11.8125 -20.34375 12.96875 -20.03125 C 14.125 -19.726562 15.117188 -19.285156 15.953125 -18.703125 L 15 -16.390625 C 14.144531 -16.929688 13.234375 -17.335938 12.265625 -17.609375 C 11.304688 -17.890625 10.363281 -18.03125 9.4375 -18.03125 C 7.800781 -18.03125 6.570312 -17.734375 5.75 -17.140625 C 4.925781 -16.546875 4.515625 -15.773438 4.515625 -14.828125 C 4.515625 -14.128906 4.742188 -13.5625 5.203125 -13.125 C 5.671875 -12.695312 6.25 -12.359375 6.9375 -12.109375 C 7.625 -11.867188 8.554688 -11.613281 9.734375 -11.34375 C 11.253906 -10.976562 12.476562 -10.613281 13.40625 -10.25 C 14.332031 -9.882812 15.128906 -9.320312 15.796875 -8.5625 C 16.460938 -7.8125 16.796875 -6.800781 16.796875 -5.53125 C 16.796875 -4.46875 16.503906 -3.492188 15.921875 -2.609375 C 15.347656 -1.734375 14.46875 -1.039062 13.28125 -0.53125 C 12.101562 -0.0195312 10.660156 0.234375 8.953125 0.234375 Z M 8.953125 0.234375 "/></g></g></g><g fill="#ffffff" fill-opacity="1"><g transform="translate(47.114577, 24.314518)"><g><path d="M 11.265625 -0.890625 C 10.859375 -0.546875 10.351562 -0.28125 9.75 -0.09375 C 9.15625 0.0820312 8.539062 0.171875 7.90625 0.171875 C 6.363281 0.171875 5.164062 -0.238281 4.3125 -1.0625 C 3.46875 -1.894531 3.046875 -3.082031 3.046875 -4.625 L 3.046875 -13.0625 L 0.4375 -13.0625 L 0.4375 -15.34375 L 3.046875 -15.34375 L 3.046875 -18.703125 L 5.8125 -18.703125 L 5.8125 -15.34375 L 10.21875 -15.34375 L 10.21875 -13.0625 L 5.8125 -13.0625 L 5.8125 -4.75 C 5.8125 -3.914062 6.019531 -3.273438 6.4375 -2.828125 C 6.851562 -2.390625 7.445312 -2.171875 8.21875 -2.171875 C 9.070312 -2.171875 9.796875 -2.410156 10.390625 -2.890625 Z M 11.265625 -0.890625 "/></g></g></g><g fill="#ffffff" fill-opacity="1"><g transform="translate(57.677367, 24.314518)"><g><path d="M 5.296875 -12.765625 C 5.773438 -13.648438 6.488281 -14.320312 7.4375 -14.78125 C 8.382812 -15.25 9.535156 -15.484375 10.890625 -15.484375 L 10.890625 -12.796875 C 10.734375 -12.816406 10.519531 -12.828125 10.25 -12.828125 C 8.738281 -12.828125 7.554688 -12.378906 6.703125 -11.484375 C 5.847656 -10.585938 5.421875 -9.304688 5.421875 -7.640625 L 5.421875 0 L 2.640625 0 L 2.640625 -15.34375 L 5.296875 -15.34375 Z M 5.296875 -12.765625 "/></g></g></g><g fill="#ffffff" fill-opacity="1"><g transform="translate(67.776958, 24.314518)"><g><path d="M 16.5 -7.578125 C 16.5 -7.367188 16.484375 -7.09375 16.453125 -6.75 L 4 -6.75 C 4.164062 -5.394531 4.753906 -4.304688 5.765625 -3.484375 C 6.785156 -2.671875 8.046875 -2.265625 9.546875 -2.265625 C 11.390625 -2.265625 12.867188 -2.878906 13.984375 -4.109375 L 15.515625 -2.3125 C 14.816406 -1.5 13.953125 -0.878906 12.921875 -0.453125 C 11.890625 -0.0351562 10.738281 0.171875 9.46875 0.171875 C 7.84375 0.171875 6.398438 -0.160156 5.140625 -0.828125 C 3.890625 -1.492188 2.921875 -2.425781 2.234375 -3.625 C 1.554688 -4.820312 1.21875 -6.171875 1.21875 -7.671875 C 1.21875 -9.160156 1.550781 -10.5 2.21875 -11.6875 C 2.882812 -12.882812 3.800781 -13.816406 4.96875 -14.484375 C 6.132812 -15.148438 7.453125 -15.484375 8.921875 -15.484375 C 10.390625 -15.484375 11.695312 -15.148438 12.84375 -14.484375 C 13.988281 -13.816406 14.882812 -12.882812 15.53125 -11.6875 C 16.175781 -10.5 16.5 -9.128906 16.5 -7.578125 Z M 8.921875 -13.140625 C 7.585938 -13.140625 6.472656 -12.734375 5.578125 -11.921875 C 4.679688 -11.117188 4.15625 -10.0625 4 -8.75 L 13.84375 -8.75 C 13.6875 -10.039062 13.160156 -11.09375 12.265625 -11.90625 C 11.367188 -12.726562 10.253906 -13.140625 8.921875 -13.140625 Z M 8.921875 -13.140625 "/></g></g></g><g fill="#ffffff" fill-opacity="1"><g transform="translate(83.635889, 24.314518)"><g><path d="M 8.21875 -15.484375 C 10.34375 -15.484375 11.96875 -14.960938 13.09375 -13.921875 C 14.226562 -12.878906 14.796875 -11.328125 14.796875 -9.265625 L 14.796875 0 L 12.15625 0 L 12.15625 -2.03125 C 11.695312 -1.3125 11.035156 -0.765625 10.171875 -0.390625 C 9.316406 -0.015625 8.300781 0.171875 7.125 0.171875 C 5.40625 0.171875 4.03125 -0.238281 3 -1.0625 C 1.96875 -1.894531 1.453125 -2.988281 1.453125 -4.34375 C 1.453125 -5.695312 1.941406 -6.78125 2.921875 -7.59375 C 3.910156 -8.414062 5.472656 -8.828125 7.609375 -8.828125 L 12.015625 -8.828125 L 12.015625 -9.375 C 12.015625 -10.570312 11.664062 -11.488281 10.96875 -12.125 C 10.28125 -12.769531 9.257812 -13.09375 7.90625 -13.09375 C 7 -13.09375 6.109375 -12.941406 5.234375 -12.640625 C 4.367188 -12.335938 3.640625 -11.9375 3.046875 -11.4375 L 1.875 -13.515625 C 2.664062 -14.148438 3.613281 -14.632812 4.71875 -14.96875 C 5.820312 -15.3125 6.988281 -15.484375 8.21875 -15.484375 Z M 7.578125 -1.96875 C 8.640625 -1.96875 9.554688 -2.203125 10.328125 -2.671875 C 11.109375 -3.148438 11.671875 -3.820312 12.015625 -4.6875 L 12.015625 -6.828125 L 7.734375 -6.828125 C 5.378906 -6.828125 4.203125 -6.035156 4.203125 -4.453125 C 4.203125 -3.679688 4.5 -3.070312 5.09375 -2.625 C 5.695312 -2.1875 6.523438 -1.96875 7.578125 -1.96875 Z M 7.578125 -1.96875 "/></g></g></g><g fill="#ffffff" fill-opacity="1"><g transform="translate(99.523924, 24.314518)"><g><path d="M 21.828125 -15.484375 C 23.753906 -15.484375 25.28125 -14.921875 26.40625 -13.796875 C 27.539062 -12.679688 28.109375 -11.023438 28.109375 -8.828125 L 28.109375 0 L 25.328125 0 L 25.328125 -8.515625 C 25.328125 -9.992188 24.984375 -11.109375 24.296875 -11.859375 C 23.617188 -12.617188 22.644531 -13 21.375 -13 C 19.957031 -13 18.832031 -12.554688 18 -11.671875 C 17.175781 -10.796875 16.765625 -9.539062 16.765625 -7.90625 L 16.765625 0 L 13.984375 0 L 13.984375 -8.515625 C 13.984375 -9.992188 13.640625 -11.109375 12.953125 -11.859375 C 12.265625 -12.617188 11.285156 -13 10.015625 -13 C 8.609375 -13 7.488281 -12.554688 6.65625 -11.671875 C 5.832031 -10.796875 5.421875 -9.539062 5.421875 -7.90625 L 5.421875 0 L 2.640625 0 L 2.640625 -15.34375 L 5.296875 -15.34375 L 5.296875 -13.0625 C 5.859375 -13.851562 6.59375 -14.453125 7.5 -14.859375 C 8.40625 -15.273438 9.4375 -15.484375 10.59375 -15.484375 C 11.789062 -15.484375 12.851562 -15.242188 13.78125 -14.765625 C 14.707031 -14.285156 15.421875 -13.582031 15.921875 -12.65625 C 16.503906 -13.539062 17.3125 -14.234375 18.34375 -14.734375 C 19.375 -15.234375 20.535156 -15.484375 21.828125 -15.484375 Z M 21.828125 -15.484375 "/></g></g></g><g clip-path="url(#b27e1a3f3b)"><g fill="#ffffff" fill-opacity="1"><g transform="translate(128.696125, 24.314518)"><g><path d="M 15.78125 0 L 9.703125 -8.375 L 3.703125 0 L 0.375 0 L 7.984375 -10.390625 L 0.84375 -20.265625 L 4.140625 -20.265625 L 9.8125 -12.484375 L 15.4375 -20.265625 L 18.59375 -20.265625 L 11.4375 -10.484375 L 19.109375 0 Z M 15.78125 0 "/></g></g></g></g></svg>